<?xml version="1.0" encoding="UTF-8" standalone="no"?>
<svg
   xmlns:osb="http://www.openswatchbook.org/uri/2009/osb"
   xmlns:dc="http://purl.org/dc/elements/1.1/"
   xmlns:cc="http://creativecommons.org/ns#"
   xmlns:rdf="http://www.w3.org/1999/02/22-rdf-syntax-ns#"
   xmlns:svg="http://www.w3.org/2000/svg"
   xmlns="http://www.w3.org/2000/svg"
   xmlns:sodipodi="http://sodipodi.sourceforge.net/DTD/sodipodi-0.dtd"
   xmlns:inkscape="http://www.inkscape.org/namespaces/inkscape"
   width="140.00002mm"
   height="140.00002mm"
   viewBox="0 0 140.00002 140.00002"
   version="1.1"
   id="svg8"
   inkscape:version="1.0.1 (3bc2e813f5, 2020-09-07)"
   sodipodi:docname="apple-touch-icon.svg">
  <defs
     id="defs2">
    <linearGradient
       inkscape:collect="always"
       id="linearGradient885"
       osb:paint="gradient">
      <stop
         style="stop-color:#000000;stop-opacity:1;"
         offset="0"
         id="stop881" />
      <stop
         style="stop-color:#000000;stop-opacity:0;"
         offset="1"
         id="stop883" />
    </linearGradient>
    <linearGradient
       id="linearGradient877"
       osb:paint="solid">
      <stop
         style="stop-color:#000000;stop-opacity:1;"
         offset="0"
         id="stop875" />
    </linearGradient>
  </defs>
  <sodipodi:namedview
     id="base"
     pagecolor="#ffffff"
     bordercolor="#666666"
     borderopacity="1.0"
     inkscape:pageopacity="0.0"
     inkscape:pageshadow="2"
     inkscape:zoom="0.7"
     inkscape:cx="-161.31737"
     inkscape:cy="401.28039"
     inkscape:document-units="mm"
     inkscape:current-layer="layer2"
     inkscape:document-rotation="0"
     showgrid="false"
     inkscape:window-width="1920"
     inkscape:window-height="1017"
     inkscape:window-x="-8"
     inkscape:window-y="-8"
     inkscape:window-maximized="1"
     showguides="true"
     inkscape:guide-bbox="true" />
  <metadata
     id="metadata5">
    <rdf:RDF>
      <cc:Work
         rdf:about="">
        <dc:format>image/svg+xml</dc:format>
        <dc:type
           rdf:resource="http://purl.org/dc/dcmitype/StillImage" />
        <dc:title></dc:title>
      </cc:Work>
    </rdf:RDF>
  </metadata>
  <g
     inkscape:groupmode="layer"
     id="layer3"
     inkscape:label="Layer 3"
     style="display:inline"
     transform="translate(-35.128315,-31.344417)">
    <path
       d="m 63.015219,119.30584 c -2.842189,0 -5.591528,0 -8.329295,0 -0.201048,-0.61348 -0.268288,-27.11203 -0.07151,-28.32383 0.190041,-0.0307 0.403366,-0.0956 0.616797,-0.0963 3.019037,-0.007 6.03818,0.004 9.057323,-0.013 0.490855,-0.003 0.765633,0.1771 0.992434,0.60855 1.680669,3.19475 3.387932,6.3754 5.076122,9.56627 0.51858,0.97966 0.84067,2.02777 0.98001,3.1302 0.0212,0.16616 0.037,0.34043 0.10055,0.49142 0.0356,0.0854 0.17074,0.19015 0.24976,0.18168 0.11995,-0.0127 0.28681,-0.0907 0.33126,-0.18803 0.079,-0.17251 0.0878,-0.37959 0.1143,-0.57362 0.14288,-1.0414 0.42122,-2.03835 0.92005,-2.97145 1.70215,-3.18346 3.40148,-6.36834 5.08705,-9.56027 0.23142,-0.43815 0.48613,-0.6911 1.03223,-0.68686 3.01872,0.0226 6.03814,0.01 9.05722,0.0141 0.19085,2.6e-4 0.38206,0.0469 0.55457,0.0699 0.19649,0.6283 0.25188,27.2348 0.0716,28.2515 -0.60325,0.2025 -7.44221,0.23919 -8.37989,0.0279 -0.0236,-0.21942 -0.073,-0.46319 -0.073,-0.70661 0.002,-4.17583 -0.006,-8.35201 0.0286,-12.52784 0.007,-0.86819 0.17286,-1.73532 0.26917,-2.60245 0.0251,-0.22824 0.078,-0.50447 -0.22507,-0.53516 -0.12665,-0.013 -0.36478,0.18521 -0.40464,0.32844 -0.86783,3.11785 -2.76013,5.7284 -4.21711,8.55345 -0.36195,0.70132 -0.77329,1.37689 -1.14794,2.07221 -0.18027,0.33408 -0.42968,0.48013 -0.81562,0.47661 -1.43898,-0.0134 -2.87831,-0.0257 -4.31659,0.005 -0.53692,0.0113 -0.73533,-0.31504 -0.944771,-0.69498 -0.9259,-1.67957 -1.851519,-3.35915 -2.78638,-5.03378 -0.948654,-1.69898 -1.940983,-3.37679 -2.415716,-5.29202 -0.02011,-0.0808 -0.04643,-0.1778 -0.104176,-0.22825 -0.09839,-0.0854 -0.275061,-0.2226 -0.327695,-0.1905 -0.118533,0.0734 -0.25908,0.24095 -0.252871,0.36301 0.02148,0.42016 0.119733,0.83573 0.156951,1.25589 0.06477,0.72919 0.147461,1.46014 0.150354,2.19075 0.01584,3.92183 0.01005,7.84401 0.009,11.76619 0,0.25083 -0.02413,0.50201 -0.043,0.87172"
       style="fill:#1e50bc;fill-opacity:1;fill-rule:evenodd;stroke:none;stroke-width:0.0352777"
       id="path36" />
    <path
       d="m 153.97742,108.51507 c -3.22474,0.0494 -6.45865,-0.0198 -9.652,0.0381 -0.24341,0.76518 -0.25717,2.56928 -0.0388,3.41207 0.30268,0.019 0.63218,0.0568 0.96097,0.0572 3.30094,0.005 6.60153,0.003 9.90247,0.003 0.19755,0 0.39581,0.0109 0.59231,0 0.44027,-0.024 0.59478,0.1912 0.59267,0.61453 -0.0106,2.08739 -0.006,4.17513 -0.0109,6.26287 -2.6e-4,0.10654 -0.0476,0.21308 -0.0917,0.39899 -0.27058,0.0215 -0.54152,0.0617 -0.81245,0.0617 -6.29108,0.004 -12.58252,0.003 -18.87361,0.003 -0.0843,0 -0.16933,0.002 -0.25365,-0.002 -0.6484,-0.0289 -0.69497,-0.0769 -0.72707,-0.75424 -0.006,-0.14111 -0.003,-0.28222 -0.003,-0.42333 -2.7e-4,-8.71749 -0.001,-17.43463 0.002,-26.15212 0,-0.33267 0.0332,-0.66499 0.0543,-1.06963 0.32984,-0.0318 0.60183,-0.0804 0.87383,-0.0808 6.31931,-0.004 12.63862,-0.005 18.95793,-0.002 0.8636,2.7e-4 0.87806,0.0205 0.87947,0.92428 0.004,1.83374 0.002,3.66748 8e-4,5.50122 -8e-4,1.03716 -0.002,1.03963 -1.00718,1.03999 -3.35739,0.001 -6.71443,2.6e-4 -10.07181,2.6e-4 -0.32985,0 -0.6604,0 -1.0541,0 0,1.13665 0,2.16676 0,3.3147 0.31362,0.018 0.63711,0.0522 0.96061,0.0526 2.62361,0.005 5.24722,0.003 7.87118,0.003 0.19756,0 0.39476,0.002 0.59232,0.004 0.33725,0.003 0.52846,0.15311 0.52634,0.51082 -0.0109,2.00167 -0.0194,4.00403 -0.0328,6.00569 -2.6e-4,0.0497 -0.0476,0.0988 -0.13829,0.27623"
       style="fill:#1e50bc;fill-opacity:1;fill-rule:evenodd;stroke:none;stroke-width:0.0352777"
       id="path38" />
    <path
       d="m 122.5234,65.81908 c 0.86642,0 1.62384,0.003 2.3809,-0.001 0.33796,-0.002 0.68298,0.0201 1.01247,-0.0384 0.72425,-0.12912 1.32998,-0.44274 1.6129,-1.1938 0.4893,-1.29928 -0.3623,-2.53118 -1.87042,-2.62361 -0.87066,-0.0533 -1.74696,-0.019 -2.62044,-0.012 -0.15875,10e-4 -0.31679,0.0589 -0.51541,0.0988 0,1.23684 0,2.43382 0,3.77049 z m 7.70608,2.97321 c 0.0928,0.22225 0.10054,0.30339 0.13758,0.32032 1.03576,0.46849 1.62172,1.35467 2.18052,2.28424 0.43886,0.7306 1.0915,1.20332 1.9431,1.3776 0.2473,0.0508 0.48895,0.12911 0.80222,0.21307 0.0349,0.19403 0.10513,0.40605 0.10725,0.61913 0.0109,1.26929 0.0152,2.53894 0.003,3.80859 -0.007,0.73448 -0.0494,0.74471 -0.74295,0.85019 -1.24214,0.18839 -2.48603,0.14605 -3.70311,-0.0995 -1.63583,-0.3302 -2.87726,-1.26188 -3.64208,-2.76648 -0.30621,-0.60255 -0.54222,-1.24037 -0.84385,-1.84538 -0.22577,-0.45226 -0.48083,-0.89429 -0.76729,-1.31022 -0.39405,-0.5722 -0.95179,-0.85443 -1.66476,-0.82268 -0.47236,0.0208 -0.9465,0.004 -1.49895,0.004 -0.16792,2.27013 0.0145,4.46017 -0.10724,6.61847 -0.68228,0.22542 -5.51992,0.25082 -6.4061,0.0328 -0.0176,-0.24836 -0.0547,-0.52141 -0.0547,-0.79446 -0.003,-6.65833 -0.002,-13.31701 -0.002,-19.97569 0,-0.11289 0.008,-0.22613 0.001,-0.33831 -0.0236,-0.41557 0.14535,-0.64559 0.58526,-0.62936 0.14111,0.005 0.28222,-10e-4 0.42334,-10e-4 2.56751,0 5.13573,-0.0409 7.70255,0.0148 1.65735,0.0356 3.32669,0.0974 4.92901,0.62441 0.18697,0.0614 0.37571,0.11924 0.56197,0.1831 3.86327,1.32397 4.80625,4.7445 4.12927,7.68314 -0.38665,1.67923 -1.59738,2.73968 -3.10939,3.47275 -0.31644,0.15346 -0.63006,0.3115 -0.96343,0.47695"
       style="fill:#1e50bc;fill-opacity:1;fill-rule:evenodd;stroke:none;stroke-width:0.0352777"
       id="path40" />
    <path
       d="m 119.41155,111.84529 c 3.83999,0 7.52157,0 11.16753,0 0.23319,0.70803 0.26247,6.57437 0.0515,7.4676 -0.248,0.0166 -0.52105,0.0508 -0.7934,0.0512 -6.0071,0.003 -12.01384,0.002 -18.02059,10e-4 -0.16898,0 -0.36301,0.0437 -0.50095,-0.0236 -0.17462,-0.0854 -0.3757,-0.23847 -0.43426,-0.40781 -0.079,-0.22895 -0.0402,-0.50094 -0.0402,-0.75424 -10e-4,-8.71431 -0.002,-17.42863 0.001,-26.14259 2.6e-4,-0.33267 0.0328,-0.66499 0.054,-1.07315 0.35666,-0.031 0.65616,-0.0787 0.95567,-0.0794 2.1717,-0.007 4.3427,-0.005 6.5144,-0.003 1.03963,0.001 1.04422,0.004 1.04457,1.02446 0.001,6.23253 7.9e-4,12.46505 7.9e-4,18.69722 0,0.3609 0,0.72144 0,1.24214"
       style="fill:#1e50bc;fill-opacity:1;fill-rule:evenodd;stroke:none;stroke-width:0.0352777"
       id="path42" />
    <path
       d="m 110.56459,64.78121 c 0,1.75542 0,3.37432 0,5.07964 -0.34008,0.0229 -0.63888,0.0593 -0.93804,0.06 -1.9177,0.005 -3.8354,-0.001 -5.7531,0.005 -0.90205,0.003 -0.97613,0.0734 -0.98813,0.94968 -0.007,0.52811 0.0257,1.05692 0.0427,1.663 0.3877,0.0215 0.68686,0.0508 0.98566,0.0519 1.52294,0.005 3.04624,0.002 4.56918,0.002 0.78952,0 1.57938,-3.5e-4 2.3689,3.4e-4 1.52012,0.002 1.44322,-0.13194 1.43969,1.397 -0.002,0.98707 -2.7e-4,1.9745 -2.7e-4,2.96122 0,0.14111 0.002,0.28222 -2.6e-4,0.42333 -0.0159,0.81033 -0.0384,0.84067 -0.87736,0.84208 -2.90513,0.004 -5.8099,0.002 -8.71467,0.002 -1.74872,0 -3.497438,0 -5.245808,0 -0.30621,0 -0.61207,0 -0.99624,0 -0.037,-0.31432 -0.09,-0.55492 -0.09,-0.79587 -0.005,-6.74017 -0.005,-13.48069 -0.002,-20.22087 2.6e-4,-0.81668 0.0459,-0.86219 0.86466,-0.86289 4.738148,-0.004 9.475958,-0.004 14.214118,7e-4 0.77435,7.1e-4 0.83855,0.0624 0.8442,0.80222 0.0102,1.35361 0.0109,2.70757 -2.7e-4,4.06118 -0.006,0.7045 -0.061,0.75671 -0.7881,0.75918 -2.36891,0.007 -4.73781,0.002 -7.10707,0.003 -0.25364,0 -0.508,-0.007 -0.76129,0.005 -0.60078,0.0307 -0.70309,0.1083 -0.73589,0.68121 -0.0289,0.50624 -0.009,1.01494 -0.002,1.52224 0.005,0.40887 0.20214,0.62582 0.63041,0.60536 0.19685,-0.01 0.39476,0.001 0.59232,0.001 1.80481,3.5e-4 3.60997,3.5e-4 5.41478,3.5e-4 0.30621,0 0.61278,0 1.03435,0"
       style="fill:#1e50bc;fill-opacity:1;fill-rule:evenodd;stroke:none;stroke-width:0.0352777"
       id="path44" />
    <path
       d="m 60.514483,72.59277 c 0.327696,0 0.631014,0 0.934438,0 2.368868,0 4.737842,0 7.106991,3.4e-4 0.19717,0 0.39536,-0.01 0.59221,0.003 0.53657,0.0346 0.62406,0.10795 0.63429,0.66957 0.0176,0.9585 0.006,1.9177 0.006,2.87655 3.5e-4,0.64135 0,1.28235 0,1.98932 -0.34678,0.0363 -0.58843,0.0832 -0.83012,0.0832 -4.73798,0.004 -9.476104,0.005 -14.214051,0.002 -0.868997,-7.2e-4 -0.882509,-0.0169 -0.882932,-0.91546 -0.0019,-6.68408 -0.0022,-13.36816 4.23e-4,-20.05224 5.64e-4,-0.87489 0.03461,-0.90982 0.902476,-0.91052 4.710007,-0.003 9.419732,-0.003 14.129594,3.5e-4 0.83182,7e-4 0.88685,0.0526 0.89214,0.83961 0.009,1.32574 0.005,2.65112 -3.4e-4,3.97651 -10e-4,0.21943 -0.0413,0.43886 -0.0716,0.74542 -0.32808,0.0229 -0.62512,0.061 -0.92259,0.0617 -2.397226,0.005 -4.794598,0.002 -7.191829,0.004 -0.253435,3.4e-4 -0.518266,-0.0272 -0.756144,0.0377 -0.158467,0.0434 -0.383363,0.21661 -0.398251,0.35172 -0.08611,0.77576 -0.163689,1.56069 0.09469,2.42464 2.495092,0 4.964783,0 7.511557,0 0.127317,1.7198 0.05373,3.3401 0.04822,5.06096 -0.338455,0.03 -0.633341,0.0776 -0.928123,0.079 -1.861291,0.007 -3.722899,0.003 -5.584366,0.004 -0.225425,0 -0.451168,0.006 -0.67631,0.0145 -0.300849,0.0109 -0.477909,0.17568 -0.498052,0.46884 -0.04851,0.6985 -0.0992,1.39911 0.101706,2.1851"
       style="fill:#1e50bc;fill-opacity:1;fill-rule:evenodd;stroke:none;stroke-width:0.0352777"
       id="path46" />
    <path
       d="m 93.990732,56.42672 c -0.40357,1.11584 -0.76517,2.12196 -1.13065,3.12667 -2.13748,5.88116 -4.27602,11.76161 -6.41421,17.64207 -0.0579,0.1591 -0.13441,0.31326 -0.17427,0.47625 -0.1076,0.43921 -0.39864,0.55386 -0.8188,0.55068 -1.77729,-0.0123 -3.55529,-0.0236 -5.33259,0.007 -0.52846,0.009 -0.74224,-0.22154 -0.90205,-0.67768 -0.55915,-1.59637 -1.15041,-3.18104 -1.72791,-4.77066 -1.85843,-5.11281 -3.71651,-10.22597 -5.57283,-15.33913 -0.10477,-0.28822 -0.19685,-0.58067 -0.3182,-0.94016 0.22401,-0.0639 0.39899,-0.15628 0.57467,-0.15733 1.94698,-0.0102 3.89396,0.002 5.84095,-0.0134 0.47801,-0.004 0.69603,0.19579 0.83079,0.64699 1.03222,3.45652 2.09832,6.90281 3.12243,10.36144 0.20673,0.69815 0.27199,1.43722 0.41734,2.15442 0.0699,0.34395 0.006,0.73201 0.35736,1.10701 0.12242,-0.18133 0.28434,-0.31326 0.30092,-0.46178 0.38277,-3.39373 1.76177,-6.51828 2.63631,-9.7783 0.30656,-1.14265 0.69427,-2.26342 1.01706,-3.40184 0.12912,-0.45578 0.37394,-0.63323 0.84808,-0.62865 1.9752,0.0173 3.95041,0.006 5.92561,0.0106 0.133,0 0.26599,0.0423 0.51999,0.0857"
       style="fill:#1e50bc;fill-opacity:1;fill-rule:evenodd;stroke:none;stroke-width:0.0352777"
       id="path48" />
    <path
       d="m 104.17049,105.14569 c 0,4.31518 0,8.63036 0,12.94553 0,0.14112 0.002,0.28187 -2.6e-4,0.42298 -0.012,0.82304 -0.0282,0.84808 -0.86396,0.8502 -2.25601,0.005 -4.512378,0.005 -6.768738,2.6e-4 -0.90311,-0.002 -0.93451,-0.0307 -0.93522,-0.96979 -0.004,-5.07647 -0.002,-10.15294 -0.002,-15.22941 -2.6e-4,-3.66642 -2.6e-4,-7.33319 2.7e-4,-10.99961 0,-0.25365 0.006,-0.5073 0.0116,-0.76094 0.007,-0.34643 0.19614,-0.51189 0.53234,-0.51824 0.31009,-0.006 0.62053,-0.006 0.93063,-0.006 2.03059,-2.6e-4 4.061178,-0.002 6.091758,8e-4 0.99695,0.001 1.00224,0.005 1.0026,0.98072 0.002,4.42772 10e-4,8.85543 10e-4,13.28314"
       style="fill:#1e50bc;fill-opacity:1;fill-rule:evenodd;stroke:none;stroke-width:0.0352777"
       id="path50" />
    <path
       d="m 146.71514,65.25393 c 0.0811,-0.17886 0.21943,-0.35313 0.23424,-0.53728 0.0885,-1.09291 0.50589,-2.06728 0.99695,-3.02789 0.78247,-1.53071 1.55152,-3.06846 2.29447,-4.61822 0.24836,-0.51858 0.55563,-0.76023 1.16417,-0.74753 1.83197,0.0388 3.66536,0.0123 5.49769,0.0162 0.21943,3.6e-4 0.43815,0.0318 0.79904,0.06 -0.17604,0.36935 -0.30092,0.66604 -0.45403,0.94756 -2.23343,4.11056 -4.45805,8.22642 -6.7183,12.32217 -0.42157,0.76412 -0.66075,1.51377 -0.63429,2.39783 0.0505,1.69052 0.0145,3.3835 0.0145,5.07507 0,0.3048 0,0.6096 0,0.883 -0.67734,0.23565 -5.44019,0.27975 -6.45266,0.0702 -0.0222,-0.27164 -0.0674,-0.57009 -0.0684,-0.86819 -0.007,-1.80446 -0.018,-3.60927 0.004,-5.41373 0.007,-0.64135 -0.14182,-1.20614 -0.4505,-1.76953 -2.33006,-4.25026 -4.64216,-8.51076 -6.95745,-12.76949 -0.14216,-0.26071 -0.26387,-0.5327 -0.43215,-0.87384 0.2988,-0.0282 0.48684,-0.0603 0.67487,-0.0607 1.88912,-0.004 3.7786,0.0152 5.66737,-0.0138 0.55421,-0.008 0.87136,0.17074 1.11513,0.6798 0.81457,1.70251 1.7145,3.3655 2.50049,5.08071 0.37077,0.80962 0.55774,1.70391 0.82656,2.56011 0.0614,0.19508 0.11712,0.39123 0.17568,0.58702 0.0674,0.007 0.13476,0.0138 0.2025,0.0205"
       style="fill:#1e50bc;fill-opacity:1;fill-rule:evenodd;stroke:none;stroke-width:0.0352777"
       id="path52" />
    <path
       d="m 62.329102,139.7606 c 0.140405,-0.31397 0.225425,-0.47837 0.28896,-0.65123 0.231916,-0.63006 0.397969,-1.29222 0.695784,-1.88877 0.730074,-1.46332 1.535113,-2.88855 2.276793,-4.34622 0.24832,-0.48825 0.557953,-0.70344 1.121163,-0.68757 1.296882,0.0367 2.59542,0.004 3.89294,0.0148 0.67804,0.006 0.756,0.0695 0.75706,0.70979 0.007,4.59881 0.002,9.19763 -10e-4,13.79644 -3.5e-4,0.13793 -0.0402,0.27552 -0.0727,0.4833 -0.21202,0.031 -0.42475,0.0871 -0.63782,0.0892 -0.93063,0.0102 -1.86193,0.009 -2.792945,0.003 -0.816364,-0.005 -0.868293,-0.0406 -0.863213,-0.86148 0.01531,-2.45392 0.04974,-4.90749 0.07444,-7.36141 0.0015,-0.16052 -0.01849,-0.32103 -0.04068,-0.68087 -0.210961,0.27059 -0.356764,0.3863 -0.40774,0.53446 -0.649217,1.88313 -1.797932,3.50767 -2.706476,5.25604 -0.166194,0.31997 -0.413279,0.42228 -0.758755,0.40993 -0.507259,-0.018 -1.018505,-0.0384 -1.522589,0.005 -0.536331,0.0469 -0.822434,-0.1916 -1.050328,-0.64633 -0.858273,-1.71062 -1.997075,-3.27801 -2.604241,-5.1181 -0.03665,-0.11112 -0.158045,-0.19367 -0.331012,-0.39581 -0.0551,0.27693 -0.111477,0.42439 -0.109396,0.57079 0.035,2.53647 0.08597,5.0733 0.11176,7.60977 0.0062,0.61877 -0.06491,0.66816 -0.693561,0.67557 -1.015471,0.012 -2.031506,-0.008 -3.046871,0.007 -0.42979,0.006 -0.629462,-0.1718 -0.623147,-0.59725 0.0032,-0.19685 -0.0044,-0.39476 -0.0044,-0.59196 -3.88e-4,-4.23228 -3.88e-4,-8.4642 -3.88e-4,-12.69648 0,-0.0847 -7.05e-4,-0.16933 5.29e-4,-0.25365 0.01337,-0.91933 0.03641,-0.94684 0.957898,-0.95002 1.269718,-0.005 2.539577,0.0127 3.808765,-0.008 0.453355,-0.008 0.727605,0.15487 0.935673,0.55916 0.839646,1.62912 1.721167,3.23708 2.546597,4.87292 0.237173,0.4706 0.332952,1.01141 0.505213,1.51588 0.05747,0.16792 0.151306,0.32315 0.294076,0.6216"
       style="fill:#1e50bc;fill-opacity:1;fill-rule:evenodd;stroke:none;stroke-width:0.0352777"
       id="path54" />
    <path
       d="m 134.89426,138.78235 c 0.83326,0 1.56422,0.0381 2.28953,-0.0109 0.73872,-0.0497 1.21743,-0.55033 1.28623,-1.2252 0.0677,-0.66357 -0.31997,-1.28093 -1.04634,-1.41428 -0.70838,-0.13018 -1.44568,-0.12136 -2.17064,-0.127 -0.13335,-8e-4 -0.37677,0.21484 -0.38488,0.3429 -0.0536,0.79974 -0.0868,1.60478 0.0261,2.43452 z m 5.33824,2.17099 c 0.34395,0.29704 0.69073,0.53975 0.96414,0.84702 0.27869,0.31362 0.42404,0.76623 0.73801,1.0227 0.50765,0.41381 1.1056,0.71755 1.85667,1.1871 0,0.80363 0.0134,1.83797 -0.0159,2.87126 -0.004,0.13511 -0.22437,0.37747 -0.34643,0.37888 -0.9271,0.008 -1.87008,0.0667 -2.77813,-0.0787 -1.14829,-0.1838 -1.98261,-0.90099 -2.48708,-1.9685 -0.24024,-0.50976 -0.45685,-1.03328 -0.72707,-1.52647 -0.57962,-1.05833 -1.24178,-1.30845 -2.55129,-0.95497 -0.0173,0.27094 -0.0515,0.5708 -0.0536,0.87101 -0.007,1.0153 0.007,2.0313 -0.007,3.04694 -0.008,0.56762 -0.0677,0.62477 -0.64312,0.63183 -1.04352,0.013 -2.08774,0.0127 -3.13161,0 -0.60607,-0.007 -0.65228,-0.0589 -0.66181,-0.69921 -0.0124,-0.84631 -0.004,-1.69298 -0.004,-2.53894 0,-3.58387 0,-7.16703 0,-10.7502 0,-0.3055 0,-0.61136 0,-0.99448 0.31186,-0.0395 0.55351,-0.0998 0.79375,-0.0956 2.33892,0.0409 4.67854,0.0769 7.01711,0.14958 0.96837,0.03 1.88489,0.3242 2.74073,0.7814 1.56422,0.83573 2.17875,2.21686 2.18722,3.91583 0.008,1.61502 -0.82938,2.69946 -2.22497,3.40925 -0.17533,0.0892 -0.35207,0.17709 -0.52211,0.27587 -0.042,0.0243 -0.0607,0.0889 -0.14358,0.21837"
       style="fill:#1e50bc;fill-opacity:1;fill-rule:evenodd;stroke:none;stroke-width:0.0352777"
       id="path56" />
    <path
       d="m 127.717,143.37093 c 0,1.27882 0.003,2.37419 -0.002,3.46921 -0.001,0.31821 -0.1905,0.44309 -0.49213,0.44309 -3.29882,-0.001 -6.59765,-0.001 -9.89577,-7.9e-4 -0.30656,2.6e-4 -0.47589,-0.13935 -0.48366,-0.45297 -0.004,-0.16898 -0.006,-0.33831 -0.006,-0.50729 -2.6e-4,-4.39808 -7.9e-4,-8.79616 0.001,-13.19424 0,-0.24977 0.0226,-0.49954 0.0399,-0.86254 0.91017,-0.13194 1.80517,-0.0501 2.6917,-0.0642 0.90205,-0.0141 1.8041,-0.003 2.70651,-0.003 0.87418,0 1.74802,0 2.6222,0 0.89429,0 1.78858,0 2.72732,0 0.0413,0.32596 0.0889,0.54045 0.0921,0.75494 0.0102,0.67628 0.005,1.35326 0.004,2.02988 -0.001,1.12501 -0.001,1.12607 -1.0862,1.12642 -1.43827,8e-4 -2.87584,2.7e-4 -4.31377,2.7e-4 -0.30233,0 -0.60466,0 -0.97331,0 0,0.64523 0,1.18745 0,1.79176 0.31891,0.0201 0.59231,0.0505 0.86607,0.0519 1.12783,0.006 2.25566,-2.7e-4 3.38314,0.003 0.94685,0.003 0.96238,0.0187 0.97049,0.92533 0.005,0.59161 0.006,1.18393 -7.9e-4,1.77589 -0.0102,0.84808 -0.0243,0.86501 -0.84455,0.86924 -1.15606,0.006 -2.31176,-7.9e-4 -3.46781,0.004 -0.27658,8e-4 -0.5528,0.0229 -0.89994,0.0388 0,0.5909 0,1.13242 0,1.80164 2.09445,0 4.16243,0 6.36024,0"
       style="fill:#1e50bc;fill-opacity:1;fill-rule:evenodd;stroke:none;stroke-width:0.0352777"
       id="path58" />
    <path
       d="m 82.022742,141.07999 c -0.33408,-1.4926 -0.64911,-2.90901 -0.97366,-4.32294 -0.0141,-0.0614 -0.11219,-0.10372 -0.16263,-0.14711 -0.0741,0.0296 -0.16052,0.0406 -0.16828,0.0713 -0.34678,1.33315 -0.68862,2.667 -1.0227,4.00332 -0.025,0.1009 0.0109,0.21731 0.0236,0.39547 0.75953,0 1.4986,0 2.30364,0 z m 6.68938,6.20324 c -1.46897,0 -2.81764,-0.005 -4.16666,0.004 -0.33267,0.002 -0.52494,-0.13546 -0.61666,-0.45155 -0.15698,-0.54116 -0.3235,-1.0788 -0.49177,-1.61608 -0.0914,-0.29315 -0.25682,-0.47625 -0.60466,-0.47378 -1.43545,0.0102 -2.87091,0.005 -4.4069,0.005 -0.17815,0.57997 -0.34713,1.13807 -0.52105,1.69475 -0.26,0.83361 -0.26141,0.83643 -1.09997,0.83961 -1.01458,0.004 -2.02953,0.004 -3.04447,-0.001 -0.21978,-0.001 -0.43921,-0.0289 -0.75706,-0.0515 0.0783,-0.29069 0.12277,-0.52811 0.20567,-0.75177 1.67217,-4.51591 3.34751,-9.03041 5.02532,-13.54385 0.26988,-0.72601 0.27764,-0.73095 1.02658,-0.73554 1.09926,-0.007 2.19887,0.012 3.29812,-0.008 0.46638,-0.008 0.70274,0.17745 0.86501,0.61772 1.71345,4.65067 3.44523,9.29428 5.16926,13.94107 0.0469,0.1263 0.0607,0.26458 0.11924,0.53199"
       style="fill:#1e50bc;fill-opacity:1;fill-rule:evenodd;stroke:none;stroke-width:0.0352777"
       id="path60" />
    <path
       d="m 152.88769,137.13699 c -0.11253,-0.27516 -0.17356,-0.49212 -0.28293,-0.68156 -0.47625,-0.82374 -1.84749,-0.86325 -2.38442,-0.0766 -0.25647,0.3757 -0.21026,0.77752 0.20002,1.01529 0.38489,0.22366 0.81669,0.37677 1.24143,0.52105 0.72002,0.24377 1.46085,0.42863 2.17382,0.69039 0.5528,0.2025 1.10243,0.43921 1.60902,0.73695 2.86632,1.68734 2.17099,5.22676 0.40181,6.60788 -0.99201,0.7747 -2.13536,1.17123 -3.34433,1.30775 -2.26942,0.25577 -4.44641,-0.0935 -6.41985,-1.32362 -0.44803,-0.27905 -0.8562,-0.62336 -1.37866,-1.00789 0.74542,-0.97119 1.43581,-1.87113 2.14771,-2.79894 0.27094,0.16828 0.46567,0.27517 0.64488,0.40323 1.18004,0.84384 2.49872,1.14229 3.92571,0.99025 0.24624,-0.0261 0.53728,-0.072 0.7112,-0.2212 0.23954,-0.20566 0.48401,-0.49635 0.55033,-0.79022 0.0847,-0.37571 -0.25788,-0.61489 -0.58067,-0.73519 -0.7119,-0.26564 -1.44639,-0.4699 -2.15723,-0.73695 -0.89324,-0.33549 -1.82387,-0.61807 -2.6476,-1.08303 -2.68323,-1.51412 -2.23238,-4.832 -0.59761,-6.27521 0.89782,-0.79304 1.94804,-1.23437 3.11609,-1.39911 1.72896,-0.24448 3.43359,-0.17216 5.05107,0.56973 1.19451,0.54787 2.03447,1.40723 2.26025,2.75661 0.0325,0.19191 0.0522,0.39476 0.03,0.58702 -0.0935,0.8255 -0.22437,0.93874 -1.0661,0.94262 -1.0675,0.004 -2.13466,7.9e-4 -3.20393,7.9e-4"
       style="fill:#1e50bc;fill-opacity:1;fill-rule:evenodd;stroke:none;stroke-width:0.0352777"
       id="path62" />
    <path
       d="m 114.7062,132.2482 c 0,1.01635 0,1.91488 0,2.81305 0,0.30444 0,0.60854 0,0.96484 -0.30304,0.0441 -0.51682,0.0984 -0.73166,0.10196 -0.73307,0.0113 -1.46685,0.003 -2.20028,0.006 -1.14194,0.004 -1.14547,0.005 -1.14723,1.11512 -0.002,2.11597 -7.9e-4,4.23193 -7.9e-4,6.34789 0,0.98778 0.008,1.97555 -0.004,2.96228 -0.008,0.67592 -0.0501,0.71684 -0.72567,0.72319 -0.98707,0.0102 -1.97485,0.01 -2.96227,2.6e-4 -0.70873,-0.006 -0.74613,-0.042 -0.74789,-0.79022 -0.006,-2.59574 -0.002,-5.19148 -0.003,-7.78721 0,-0.62089 0.0109,-1.24178 -0.005,-1.86232 -0.0155,-0.6096 -0.0808,-0.68368 -0.68545,-0.70097 -0.7613,-0.0215 -1.5233,-0.007 -2.2853,-0.008 -0.30621,-2.6e-4 -0.61242,0 -0.95885,0 -0.0543,-0.25435 -0.12488,-0.43744 -0.1277,-0.62195 -0.012,-0.87453 -0.0155,-1.74942 -0.002,-2.6236 0.01,-0.61137 0.0713,-0.67099 0.68933,-0.68545 0.6484,-0.0155 1.29751,-0.004 1.94662,-0.004 2.96263,0 5.92491,-0.001 8.88754,0.002 0.30338,2.6e-4 0.60677,0.0265 1.06291,0.048"
       style="fill:#1e50bc;fill-opacity:1;fill-rule:evenodd;stroke:none;stroke-width:0.0352777"
       id="path64" />
    <path
       d="m 88.073592,136.13334 c 0,-1.36525 0,-2.56716 0,-3.84457 0.28152,-0.0328 0.52458,-0.0864 0.76729,-0.0868 3.63891,-0.005 7.27816,-0.006 10.91742,-10e-4 0.808208,10e-4 0.849128,0.0497 0.855478,0.87171 0.006,0.81774 -0.009,1.63618 0.004,2.45428 0.007,0.43003 -0.17533,0.61383 -0.60536,0.60819 -0.846318,-0.012 -1.692978,-0.007 -2.538938,2.6e-4 -0.93169,0.008 -0.99872,0.0635 -1.00154,1.02376 -0.009,2.90548 -0.007,5.81131 -0.003,8.71679 0.002,1.65241 -0.003,1.39277 -1.42593,1.40793 -0.78952,0.008 -1.57974,-0.008 -2.36925,0.004 -0.38559,0.006 -0.5842,-0.1464 -0.57609,-0.54327 0.005,-0.22578 -0.004,-0.45121 -0.004,-0.67698 -2.7e-4,-2.87726 0,-5.75487 -7.9e-4,-8.63212 0,-0.22543 -0.007,-0.45121 -0.007,-0.67699 0,-0.41733 -0.20497,-0.62018 -0.62442,-0.61912 -0.78987,0.002 -1.57974,-0.004 -2.36926,-0.005 -0.30339,-7.9e-4 -0.60677,0 -1.01882,0"
       style="fill:#1e50bc;fill-opacity:1;fill-rule:evenodd;stroke:none;stroke-width:0.0352777"
       id="path66" />
  </g>
  <g
     inkscape:groupmode="layer"
     id="layer2"
     inkscape:label="Layer 2"
     style="display:inline"
     transform="translate(-35.128315,-31.344417)">
    <rect
       style="fill:none;fill-rule:evenodd;stroke:#1e50bc;stroke-width:7.24511;stroke-miterlimit:4;stroke-dasharray:none;stroke-opacity:1"
       id="rect871"
       width="132.7549"
       height="132.7549"
       x="38.75087"
       y="34.966972" />
  </g>
</svg>
