<?xml version="1.0" encoding="UTF-8" standalone="no"?>
<svg
   xmlns:dc="http://purl.org/dc/elements/1.1/"
   xmlns:cc="http://creativecommons.org/ns#"
   xmlns:rdf="http://www.w3.org/1999/02/22-rdf-syntax-ns#"
   xmlns:svg="http://www.w3.org/2000/svg"
   xmlns="http://www.w3.org/2000/svg"
   xmlns:sodipodi="http://sodipodi.sourceforge.net/DTD/sodipodi-0.dtd"
   xmlns:inkscape="http://www.inkscape.org/namespaces/inkscape"
   width="218mm"
   height="192mm"
   viewBox="0 0 218 192"
   version="1.1"
   id="svg8"
   inkscape:version="1.0.1 (3bc2e813f5, 2020-09-07)"
   sodipodi:docname="emm.svg">
  <defs
     id="defs2" />
  <sodipodi:namedview
     id="base"
     pagecolor="#ffffff"
     bordercolor="#666666"
     borderopacity="1.0"
     inkscape:pageopacity="0.0"
     inkscape:pageshadow="2"
     inkscape:zoom="0.7"
     inkscape:cx="503.71133"
     inkscape:cy="348.34134"
     inkscape:document-units="mm"
     inkscape:current-layer="layer1"
     inkscape:document-rotation="0"
     showgrid="false"
     inkscape:window-width="1920"
     inkscape:window-height="1017"
     inkscape:window-x="1912"
     inkscape:window-y="-8"
     inkscape:window-maximized="1"
     showguides="true"
     inkscape:guide-bbox="true">
    <sodipodi:guide
       position="143.45692,298.30294"
       orientation="1,0"
       id="guide959" />
    <sodipodi:guide
       position="143.45692,301.64382"
       orientation="1,0"
       id="guide961" />
    <sodipodi:guide
       position="180.58461,146.19052"
       orientation="1,0"
       id="guide963" />
    <sodipodi:guide
       position="36.997373,565.68792"
       orientation="1,0"
       id="guide965" />
  </sodipodi:namedview>
  <metadata
     id="metadata5">
    <rdf:RDF>
      <cc:Work
         rdf:about="">
        <dc:format>image/svg+xml</dc:format>
        <dc:type
           rdf:resource="http://purl.org/dc/dcmitype/StillImage" />
        <dc:title></dc:title>
      </cc:Work>
    </rdf:RDF>
  </metadata>
  <g
     inkscape:label="Layer 1"
     inkscape:groupmode="layer"
     id="layer1">
    <g
       id="g20"
       transform="matrix(0.03527778,0,0,-0.03527778,19.341816,241.04444)">
      <path
         d="m 3323.3443,2755.3947 c 0,-18.37 -0.24,-37.35 0.1,-56.33 0.19,-10.78 6.28,-15.94 17.15,-14.86 4.74,0.48 9.47,1.32 14.19,2.07 29.18,4.62 53.18,19.63 77.41,41.25 0,-11.18 0,-18.93 0,-26.7 0,-105.55 0,-211.12 0.01,-316.681 0,-7.199 0.18,-14.391 0.19,-21.59 0.03,-9.961 5.24,-14.551 14.91,-14.59 15.19,-0.059 30.4,-0.551 45.58,-0.027 15.83,0.539 17.73,2.738 19.01,18.179 0.34,3.969 0.2,7.977 0.2,11.989 0.01,151.14 0.04,302.28 -0.08,453.43 -0.01,8.54 -1.22,17.08 -2.09,28.4 -24.09,0 -46.25,0.51 -68.34,-0.44 -4.26,-0.17 -9.23,-5.37 -12.15,-9.48 -3.64,-5.1 -5.23,-11.61 -8.17,-17.27 -18.75,-36.05 -43.04,-65.55 -86.21,-72.71 -3.02,-0.5 -5.81,-2.25 -11.71,-4.64 z m -602.19,29.12 c -4.24,-12.14 -6.54,-19.65 -9.47,-26.92 -11.94,-29.65 -24.15,-59.18 -36.14,-88.81 -39.25,-97.04 -78.49,-194.08 -117.59,-291.192 -3.37,-8.359 -5.61,-17.18 -9.67,-29.859 22.01,0 39.51,1.07 56.82,-0.301 18.19,-1.418 27.25,6.25 33.64,22.812 21.3,55.15 43.89,109.8 65.92,164.66 33.06,82.31 65.81,164.75 99.27,246.89 10.4,25.53 8.44,50.77 5.13,77.23 -105.71,0 -208.65,0 -314.67,0 -0.63,-16 -1.73,-30.9 -1.71,-45.8 0.04,-27.52 1.21,-28.61 28.13,-28.66 57.59,-0.12 115.17,-0.05 172.75,-0.05 7.86,0 15.7,0 27.59,0 z m 178.13,-433.512 c 28.86,-5.68 316.51,-4.308 335.28,1.75 3.13,22.731 5.29,45.922 -2.39,71.482 -73.44,0 -145.54,0 -222.97,0 7.78,6.99 11.37,10.1 14.83,13.33 48.51,45.29 97.7,89.88 145.15,136.26 17.51,17.12 33.75,36.86 45.67,58.14 38.52,68.74 26.12,155.03 -41.07,200.41 -63.61,42.97 -161.53,42.49 -224.61,-0.49 -48.56,-33.1 -63.94,-82.67 -52.71,-138.72 1.33,-6.63 7.93,-16.68 13.05,-17.31 21.84,-2.66 44.08,-3.18 67.04,0.37 -1.11,14.47 -2,26.3 -2.94,38.12 -3.43,43.08 28.23,64.81 56.04,69.03 20.25,3.09 41.78,3.4 61.96,0.18 42.64,-6.82 67.67,-46.72 59.26,-89.02 -4.01,-20.13 -12.25,-38.19 -25.51,-53.48 -13.07,-15.06 -27.02,-29.46 -41.53,-43.14 -56.43,-53.21 -113.29,-105.96 -169.79,-159.11 -6.27,-5.91 -14.82,-12.7 -16.01,-20.11 -3.63,-22.59 -4.96,-45.731 1.25,-67.692 z m -758.51,294.912 c 2.09,33.85 10.09,63.7 22.34,86.63 24.12,45.19 62.43,62.72 112.31,51.41 28.59,-6.48 41.53,-24.77 38.15,-54.05 -0.61,-5.34 -1.49,-10.65 -2.78,-19.7 18.86,-0.55 36.03,-1.54 53.18,-1.43 21.97,0.14 26.25,4.27 29.55,25.75 6.54,42.6 -12.74,81.91 -51.81,104.94 -20.9,12.33 -43.55,19.39 -67.66,22.47 -67.96,8.68 -124.49,-11.12 -167.01,-66.22 -18.32,-23.75 -30.12,-50.79 -37.97,-79.53 -17.36,-63.51 -18.4,-127.84 -7.26,-192.37 6.15,-35.67 18.16,-69.48 38.3,-99.99 46.48,-70.431 125.48,-91.47 200.1,-69.259 62.49,18.597 106.31,81.029 108.58,146.609 2.23,64.95 -19.72,118.24 -75.74,153.06 -54.7,34 -111.99,32.14 -169.02,4.01 -6.97,-3.43 -13.75,-7.27 -23.26,-12.33 z m -309.7101,212.94 c -2.37,-10.21 -4.85,-19.34 -6.56,-28.6 -4.92,-26.7 -9.78,-53.42 -14.1,-80.22 -1.51,-9.34 -5.34,-14.62 -15.32,-14.51 -24.78,0.27 -49.56,0.23 -74.33,0.76 -2.59,0.05 -5.12,3.03 -8.29,5.05 6.34,38.82 12.59,77.01 19.44,118.93 -20.25,0 -36.82,0.26 -53.37,-0.08 -17.39,-0.35 -18.72,-1.46 -21.86,-18.53 -5.05,-27.49 -9.78,-55.04 -14.48,-82.59 -3.88,-22.66 -4.47,-23.39 -27.33,-23.55 -22.25,-0.15 -44.5,-0.03 -67.95,-0.03 -5.19,-24.34 -5.35,-46.04 0.2,-69.68 26.16,-0.86 51.14,-1.67 78.78,-2.58 -5.94,-35.35 -11.2,-67.54 -16.82,-99.68 -3.53,-20.17 -3.78,-20.3 -24.48,-20.6 -19.99,-0.29 -39.98,-0.16 -59.98,-0.31 -8.94,-0.07 -16.18,-3.07 -16.4,-13.3 -0.4,-18.16 -0.11,-36.33 -0.11,-57.02 29.4,-1.49 55.98,-2.83 84.58,-4.27 -6.62,-40.59 -12.73,-78.042 -19.21,-117.741 25.36,-3.77 47.13,-3.359 69.95,-0.738 2.44,10.039 4.88,18.418 6.49,26.957 4.44,23.532 8.2,47.192 12.86,70.692 4.44,22.4 4.78,22.44 28.24,22.76 15.19,0.2 30.39,0.3 45.58,-0.08 7.68,-0.19 15.32,-1.55 25.72,-2.67 -6.54,-39.87 -12.66,-77.23 -18.79,-114.57 18.52,-8.359 35.49,-4.39 51.92,-4.64 17.27,-0.27 19.17,1.851 22.36,18.18 3.52,18.031 6.16,36.22 9.81,54.22 10.72,52.77 -1.91,49.43 56.66,49.71 14.79,0.07 29.58,1.41 47.24,2.3 0,17.61 0.4,31.88 -0.09,46.11 -0.77,21.95 -2.97,23.87 -25.8,24.28 -17.3,0.32 -34.6,0.34 -54.16,0.5 0.55,11.29 0.21,19.19 1.44,26.84 3.92,24.44 8.38,48.8 12.71,73.16 3.63,20.44 3.92,20.83 24.29,21.14 19.99,0.31 39.99,0.13 59.99,0.26 7.57,0.05 15.58,1.17 16.1,10.48 1.1,19.57 3,39.36 -2.42,61.16 -27.79,0 -53.78,0 -80.67,0 1.64,42.94 16.43,81.63 16.55,122.5 -24.35,0 -45.66,0 -68.39,0 z m -1123.631,3760.81 c 0,-1161.62 0,-2321.78 0,-3483.61 1217.171,0 2432.6211,0 3650.9211,0 0.71,14.23 1.96,27.56 1.96,40.88 0.1,1133.49 0.09,2266.99 0.08,3400.49 0,7.2 0.37,14.44 -0.22,21.59 -0.59,6.95 -2.19,13.82 -3.85,23.79 -1210.74,0 -2420.0201,0 -3629.3011,-0.13 -6.101,0 -12.211,-1.83 -19.59,-3.01 z m -206.96072,207.7 c 1355.36172,0 2708.25182,0 4063.21182,0 0.61,-13.29 1.39,-22.65 1.39,-32.01 0.09,-129.59 0.06,-259.18 0.06,-388.77 0,-911.93 0.1,-1823.86 -0.51,-2735.79 -0.02,-26.7 6.87,-46.02 25.88,-65.42 246.34,-251.38 491.84,-503.6 737.54,-755.62 91.57,-93.94 183.11,-187.91 274.64,-281.9 5.51,-5.66 10.72,-11.63 13.79,-14.99 -388.09,-388.088 -775.25,-775.249 -1162.45,-1162.44 -0.11,4.2382 -0.52,12.3516 -0.52,20.4492 -0.04,192.7808 -0.03,385.5818 -0.03,578.3598 0,10.211 0,20.421 0,33.031 -13.71,0.918 -24.56,2.262 -35.41,2.262 -215.22,0.128 -430.44,0.097 -645.67,0.097 -1078.31,0 -2156.6301,-0.01 -3234.9492,0.051 -40.3984,0 -38.69918,-5.359 -38.69918,38.852 0.0234,1575.078 0.0195,3150.158 0.0859,4725.238 0,11.73 0.97266,23.46 1.64063,38.6"
         style="fill:#1e50bc;fill-opacity:1;fill-rule:evenodd;stroke:none"
         id="path22" />
      <path
         d="m 1678.9742,2543.7847 c 33.44,-1.26 63.91,-1.41 96.56,-0.13 6.84,40.36 13.29,78.43 20.36,120.12 -33.57,0.92 -64.04,1.49 -96.73,-0.25 -6.74,-40.01 -13.17,-78.15 -20.19,-119.74 z m 152.09,315.07 c 22.73,0 44.04,0 68.39,0 -0.12,-40.87 -14.91,-79.56 -16.55,-122.5 26.89,0 52.88,0 80.67,0 5.42,-21.8 3.52,-41.59 2.42,-61.16 -0.52,-9.31 -8.53,-10.43 -16.1,-10.48 -20,-0.13 -40,0.05 -59.99,-0.26 -20.37,-0.31 -20.66,-0.7 -24.29,-21.14 -4.33,-24.36 -8.79,-48.72 -12.71,-73.16 -1.23,-7.65 -0.89,-15.55 -1.44,-26.84 19.56,-0.16 36.86,-0.18 54.16,-0.5 22.83,-0.41 25.03,-2.33 25.8,-24.28 0.49,-14.23 0.09,-28.5 0.09,-46.11 -17.66,-0.89 -32.45,-2.23 -47.24,-2.3 -58.57,-0.28 -45.94,3.06 -56.66,-49.71 -3.65,-18 -6.29,-36.189 -9.81,-54.22 -3.19,-16.329 -5.09,-18.45 -22.36,-18.18 -16.43,0.25 -33.4,-3.719 -51.92,4.64 6.13,37.34 12.25,74.7 18.79,114.57 -10.4,1.12 -18.04,2.48 -25.72,2.67 -15.19,0.38 -30.39,0.28 -45.58,0.08 -23.46,-0.32 -23.8,-0.36 -28.24,-22.76 -4.66,-23.5 -8.42,-47.16 -12.86,-70.692 -1.61,-8.539 -4.05,-16.918 -6.49,-26.957 -22.82,-2.621 -44.59,-3.032 -69.95,0.738 6.48,39.699 12.59,77.151 19.21,117.741 -28.6,1.44 -55.18,2.78 -84.58,4.27 0,20.69 -0.29,38.86 0.11,57.02 0.22,10.23 7.46,13.23 16.4,13.3 20,0.15 39.99,0.02 59.98,0.31 20.7,0.3 20.95,0.43 24.48,20.6 5.62,32.14 10.88,64.33 16.82,99.68 -27.64,0.91 -52.62,1.72 -78.78,2.58 -5.55,23.64 -5.39,45.34 -0.2,69.68 23.45,0 45.7,-0.12 67.95,0.03 22.86,0.16 23.45,0.89 27.33,23.55 4.7,27.55 9.43,55.1 14.48,82.59 3.14,17.07 4.47,18.18 21.86,18.53 16.55,0.34 33.12,0.08 53.37,0.08 -6.85,-41.92 -13.1,-80.11 -19.44,-118.93 3.17,-2.02 5.7,-5 8.29,-5.05 24.77,-0.53 49.55,-0.49 74.33,-0.76 9.98,-0.11 13.81,5.17 15.32,14.51 4.32,26.8 9.18,53.52 14.1,80.22 1.71,9.26 4.19,18.39 6.56,28.6"
         style="fill:#ffffff;fill-opacity:1;fill-rule:evenodd;stroke:none"
         id="path26" />
      <path
         d="m 2231.9543,2602.0747 c -22.47,-0.02 -34.25,-2.83 -55.15,-13.18 -38.39,-19.01 -42.16,-26.22 -31.65,-67.2 7.44,-29.04 20.17,-55.55 42.98,-76.02 26.08,-23.41 60.82,-29.35 88.77,-16.06 62.2,29.56 57.96,117.75 25.28,147.92 -20.06,18.53 -43.65,25.45 -70.23,24.54 z m -91.18,43.84 c 9.51,5.06 16.29,8.9 23.26,12.33 57.03,28.13 114.32,29.99 169.02,-4.01 56.02,-34.82 77.97,-88.11 75.74,-153.06 -2.27,-65.58 -46.09,-128.012 -108.58,-146.609 -74.62,-22.211 -153.62,-1.172 -200.1,69.259 -20.14,30.51 -32.15,64.32 -38.3,99.99 -11.14,64.53 -10.1,128.86 7.26,192.37 7.85,28.74 19.65,55.78 37.97,79.53 42.52,55.1 99.05,74.9 167.01,66.22 24.11,-3.08 46.76,-10.14 67.66,-22.47 39.07,-23.03 58.35,-62.34 51.81,-104.94 -3.3,-21.48 -7.58,-25.61 -29.55,-25.75 -17.15,-0.11 -34.32,0.88 -53.18,1.43 1.29,9.05 2.17,14.36 2.78,19.7 3.38,29.28 -9.56,47.57 -38.15,54.05 -49.88,11.31 -88.19,-6.22 -112.31,-51.41 -12.25,-22.93 -20.25,-52.78 -22.34,-86.63"
         style="fill:#ffffff;fill-opacity:1;fill-rule:evenodd;stroke:none"
         id="path28" />
      <path
         d="m 2899.2843,2351.0027 c -6.21,21.961 -4.88,45.102 -1.25,67.692 1.19,7.41 9.74,14.2 16.01,20.11 56.5,53.15 113.36,105.9 169.79,159.11 14.51,13.68 28.46,28.08 41.53,43.14 13.26,15.29 21.5,33.35 25.51,53.48 8.41,42.3 -16.62,82.2 -59.26,89.02 -20.18,3.22 -41.71,2.91 -61.96,-0.18 -27.81,-4.22 -59.47,-25.95 -56.04,-69.03 0.94,-11.82 1.83,-23.65 2.94,-38.12 -22.96,-3.55 -45.2,-3.03 -67.04,-0.37 -5.12,0.63 -11.72,10.68 -13.05,17.31 -11.23,56.05 4.15,105.62 52.71,138.72 63.08,42.98 161,43.46 224.61,0.49 67.19,-45.38 79.59,-131.67 41.07,-200.41 -11.92,-21.28 -28.16,-41.02 -45.67,-58.14 -47.45,-46.38 -96.64,-90.97 -145.15,-136.26 -3.46,-3.23 -7.05,-6.34 -14.83,-13.33 77.43,0 149.53,0 222.97,0 7.68,-25.56 5.52,-48.751 2.39,-71.482 -18.77,-6.058 -306.42,-7.43 -335.28,-1.75"
         style="fill:#ffffff;fill-opacity:1;fill-rule:evenodd;stroke:none"
         id="path30" />
      <path
         d="m 2721.1543,2784.5147 c -11.89,0 -19.73,0 -27.59,0 -57.58,0 -115.16,-0.07 -172.75,0.05 -26.92,0.05 -28.09,1.14 -28.13,28.66 -0.02,14.9 1.08,29.8 1.71,45.8 106.02,0 208.96,0 314.67,0 3.31,-26.46 5.27,-51.7 -5.13,-77.23 -33.46,-82.14 -66.21,-164.58 -99.27,-246.89 -22.03,-54.86 -44.62,-109.51 -65.92,-164.66 -6.39,-16.562 -15.45,-24.23 -33.64,-22.812 -17.31,1.371 -34.81,0.301 -56.82,0.301 4.06,12.679 6.3,21.5 9.67,29.859 39.1,97.112 78.34,194.152 117.59,291.192 11.99,29.63 24.2,59.16 36.14,88.81 2.93,7.27 5.23,14.78 9.47,26.92"
         style="fill:#ffffff;fill-opacity:1;fill-rule:evenodd;stroke:none"
         id="path32" />
      <path
         d="m 3323.3443,2755.3947 c 5.9,2.39 8.69,4.14 11.71,4.64 43.17,7.16 67.46,36.66 86.21,72.71 2.94,5.66 4.53,12.17 8.17,17.27 2.92,4.11 7.89,9.31 12.15,9.48 22.09,0.95 44.25,0.44 68.34,0.44 0.87,-11.32 2.08,-19.86 2.09,-28.4 0.12,-151.15 0.09,-302.29 0.08,-453.43 0,-4.012 0.14,-8.02 -0.2,-11.989 -1.28,-15.441 -3.18,-17.64 -19.01,-18.179 -15.18,-0.524 -30.39,-0.032 -45.58,0.027 -9.67,0.039 -14.88,4.629 -14.91,14.59 -0.01,7.199 -0.19,14.391 -0.19,21.59 -0.01,105.561 -0.01,211.131 -0.01,316.681 0,7.77 0,15.52 0,26.7 -24.23,-21.62 -48.23,-36.63 -77.41,-41.25 -4.72,-0.75 -9.45,-1.59 -14.19,-2.07 -10.87,-1.08 -16.96,4.08 -17.15,14.86 -0.34,18.98 -0.1,37.96 -0.1,56.33"
         style="fill:#ffffff;fill-opacity:1;fill-rule:evenodd;stroke:none"
         id="path34" />
      <path
         d="m 1329.2382,4387.7947 c -80.566,0 -158.5,0 -236.106,0 -5.699,17.39 -7.605,768.53 -2.027,802.88 5.387,0.87 11.434,2.71 17.484,2.73 85.579,0.19 171.161,-0.11 256.743,0.37 13.914,0.08 21.703,-5.02 28.132,-17.25 47.641,-90.56 96.036,-180.72 143.89,-271.17 14.7,-27.77 23.83,-57.48 27.78,-88.73 0.6,-4.71 1.05,-9.65 2.85,-13.93 1.01,-2.42 4.84,-5.39 7.08,-5.15 3.4,0.36 8.13,2.57 9.39,5.33 2.24,4.89 2.49,10.76 3.24,16.26 4.05,29.52 11.94,57.78 26.08,84.23 48.25,90.24 96.42,180.52 144.2,271 6.56,12.42 13.78,19.59 29.26,19.47 85.57,-0.64 171.16,-0.27 256.7401,-0.4 5.41,-0.01 10.83,-1.33 15.72,-1.98 5.57,-17.81 7.14,-772.01 2.03,-800.83 -17.1,-5.74 -210.9601,-6.78 -237.5401,-0.79 -0.67,6.22 -2.07,13.13 -2.07,20.03 0.05,118.37 -0.16,236.75 0.81,355.12 0.2,24.61 4.9,49.19 7.63,73.77 0.71,6.47 2.21,14.3 -6.38,15.17 -3.59,0.37 -10.34,-5.25 -11.47,-9.31 -24.6,-88.38 -78.24,-162.38 -119.54,-242.46 -10.26,-19.88 -21.92,-39.03 -32.54,-58.74 -5.11,-9.47 -12.18,-13.61 -23.12,-13.51 -40.79,0.38 -81.59,0.73 -122.36,-0.15 -15.22,-0.32 -20.844,8.93 -26.781,19.7 -26.246,47.61 -52.484,95.22 -78.984,142.69 -26.891,48.16 -55.02,95.72 -68.477,150.01 -0.57,2.29 -1.316,5.04 -2.953,6.47 -2.789,2.42 -7.797,6.31 -9.289,5.4 -3.36,-2.08 -7.344,-6.83 -7.168,-10.29 0.609,-11.91 3.394,-23.69 4.449,-35.6 1.836,-20.67 4.18,-41.39 4.262,-62.1 0.449,-111.17 0.285,-222.35 0.254,-333.53 0,-7.11 -0.684,-14.23 -1.219,-24.71"
         style="fill:#1e50bc;fill-opacity:1;fill-rule:evenodd;stroke:none"
         id="path36" />
      <path
         d="m 3907.6943,4693.6747 c -91.41,-1.4 -183.08,0.56 -273.6,-1.08 -6.9,-21.69 -7.29,-72.83 -1.1,-96.72 8.58,-0.54 17.92,-1.61 27.24,-1.62 93.57,-0.13 187.13,-0.08 280.7,-0.08 5.6,0 11.22,-0.31 16.79,0 12.48,0.68 16.86,-5.42 16.8,-17.42 -0.3,-59.17 -0.16,-118.35 -0.31,-177.53 -0.01,-3.02 -1.35,-6.04 -2.6,-11.31 -7.67,-0.61 -15.35,-1.75 -23.03,-1.75 -178.33,-0.1 -356.67,-0.08 -535,-0.08 -2.39,0 -4.8,-0.06 -7.19,0.05 -18.38,0.82 -19.7,2.18 -20.61,21.38 -0.18,4 -0.08,8 -0.08,12 -0.01,247.11 -0.03,494.21 0.06,741.32 0,9.43 0.94,18.85 1.54,30.32 9.35,0.9 17.06,2.28 24.77,2.29 179.13,0.12 358.26,0.13 537.39,0.05 24.48,-0.01 24.89,-0.58 24.93,-26.2 0.1,-51.98 0.06,-103.96 0.02,-155.94 -0.02,-29.4 -0.05,-29.47 -28.55,-29.48 -95.17,-0.03 -190.33,-0.01 -285.5,-0.01 -9.35,0 -18.72,0 -29.88,0 0,-32.22 0,-61.42 0,-93.96 8.89,-0.51 18.06,-1.48 27.23,-1.49 74.37,-0.13 148.74,-0.08 223.12,-0.08 5.6,0 11.19,-0.06 16.79,-0.11 9.56,-0.09 14.98,-4.34 14.92,-14.48 -0.31,-56.74 -0.55,-113.5 -0.93,-170.24 -0.01,-1.41 -1.35,-2.8 -3.92,-7.83"
         style="fill:#1e50bc;fill-opacity:1;fill-rule:evenodd;stroke:none"
         id="path38" />
      <path
         d="m 3016.0843,5903.9547 c 24.56,0 46.03,-0.09 67.49,0.04 9.58,0.06 19.36,-0.57 28.7,1.09 20.53,3.66 37.7,12.55 45.72,33.84 13.87,36.83 -10.27,71.75 -53.02,74.37 -24.68,1.51 -49.52,0.54 -74.28,0.34 -4.5,-0.03 -8.98,-1.67 -14.61,-2.8 0,-35.06 0,-68.99 0,-106.88 z m 218.44,-84.28 c 2.63,-6.3 2.85,-8.6 3.9,-9.08 29.36,-13.28 45.97,-38.4 61.81,-64.75 12.44,-20.71 30.94,-34.11 55.08,-39.05 7.01,-1.44 13.86,-3.66 22.74,-6.04 0.99,-5.5 2.98,-11.51 3.04,-17.55 0.31,-35.98 0.43,-71.97 0.09,-107.96 -0.2,-20.82 -1.4,-21.11 -21.06,-24.1 -35.21,-5.34 -70.47,-4.14 -104.97,2.82 -46.37,9.36 -81.56,35.77 -103.24,78.42 -8.68,17.08 -15.37,35.16 -23.92,52.31 -6.4,12.82 -13.63,25.35 -21.75,37.14 -11.17,16.22 -26.98,24.22 -47.19,23.32 -13.39,-0.59 -26.83,-0.11 -42.49,-0.11 -4.76,-64.35 0.41,-126.43 -3.04,-187.61 -19.34,-6.39 -156.47,-7.11 -181.59,-0.93 -0.5,7.04 -1.55,14.78 -1.55,22.52 -0.09,188.74 -0.07,377.49 -0.07,566.24 0,3.2 0.22,6.41 0.03,9.59 -0.67,11.78 4.12,18.3 16.59,17.84 4,-0.14 8,0.04 12,0.04 72.78,0 145.58,1.16 218.34,-0.42 46.98,-1.01 94.3,-2.76 139.72,-17.7 5.3,-1.74 10.65,-3.38 15.93,-5.19 109.51,-37.53 136.24,-134.49 117.05,-217.79 -10.96,-47.6 -45.28,-77.66 -88.14,-98.44 -8.97,-4.35 -17.86,-8.83 -27.31,-13.52"
         style="fill:#1e50bc;fill-opacity:1;fill-rule:evenodd;stroke:none"
         id="path40" />
      <path
         d="m 2927.8743,4599.2747 c 108.85,0 213.21,0 316.56,0 6.61,-20.07 7.44,-186.36 1.46,-211.68 -7.03,-0.47 -14.77,-1.44 -22.49,-1.45 -170.28,-0.08 -340.55,-0.06 -510.82,-0.04 -4.79,0 -10.29,-1.24 -14.2,0.67 -4.95,2.42 -10.65,6.76 -12.31,11.56 -2.24,6.49 -1.14,14.2 -1.14,21.38 -0.04,247.02 -0.05,494.04 0.03,741.05 0.01,9.43 0.93,18.85 1.53,30.42 10.11,0.88 18.6,2.23 27.09,2.25 61.56,0.19 123.1,0.14 184.66,0.09 29.47,-0.03 29.6,-0.11 29.61,-29.04 0.04,-176.67 0.02,-353.34 0.02,-530 0,-10.23 0,-20.45 0,-35.21"
         style="fill:#1e50bc;fill-opacity:1;fill-rule:evenodd;stroke:none"
         id="path42" />
      <path
         d="m 2677.0943,5933.3747 c 0,-49.76 0,-95.65 0,-143.99 -9.64,-0.65 -18.11,-1.68 -26.59,-1.7 -54.36,-0.15 -108.72,0.04 -163.08,-0.15 -25.57,-0.09 -27.67,-2.08 -28.01,-26.92 -0.21,-14.97 0.73,-29.96 1.21,-47.14 10.99,-0.61 19.47,-1.44 27.94,-1.47 43.17,-0.14 86.35,-0.06 129.52,-0.06 22.38,0 44.77,0.01 67.15,-0.01 43.09,-0.05 40.91,3.74 40.81,-39.6 -0.05,-27.98 -0.01,-55.97 -0.01,-83.94 0,-4 0.06,-8 -0.01,-12 -0.45,-22.97 -1.09,-23.83 -24.87,-23.87 -82.35,-0.12 -164.69,-0.05 -247.03,-0.05 -49.57,0 -99.14,0 -148.7,0 -8.68,0 -17.35,0 -28.24,0 -1.05,8.91 -2.55,15.73 -2.55,22.56 -0.13,191.06 -0.14,382.13 -0.05,573.19 0.01,23.15 1.3,24.44 24.51,24.46 134.31,0.11 268.61,0.12 402.92,-0.02 21.95,-0.02 23.77,-1.77 23.93,-22.74 0.29,-38.37 0.31,-76.75 -0.01,-115.12 -0.17,-19.97 -1.73,-21.45 -22.34,-21.52 -67.15,-0.2 -134.3,-0.07 -201.46,-0.09 -7.19,0 -14.4,0.21 -21.58,-0.15 -17.03,-0.87 -19.93,-3.07 -20.86,-19.31 -0.82,-14.35 -0.26,-28.77 -0.07,-43.15 0.15,-11.59 5.73,-17.74 17.87,-17.16 5.58,0.27 11.19,-0.04 16.79,-0.04 51.16,-0.01 102.33,-0.01 153.49,-0.01 8.68,0 17.37,0 29.32,0"
         style="fill:#1e50bc;fill-opacity:1;fill-rule:evenodd;stroke:none"
         id="path44" />
      <path
         d="m 1258.3512,5711.9447 c 9.289,0 17.887,0 26.488,0 67.149,0 134.301,0 201.458,-0.01 5.589,0 11.207,0.27 16.787,-0.09 15.21,-0.98 17.69,-3.06 17.98,-18.98 0.5,-27.17 0.17,-54.36 0.17,-81.54 0.01,-18.18 0,-36.35 0,-56.39 -9.83,-1.03 -16.68,-2.36 -23.531,-2.36 -134.305,-0.12 -268.614,-0.15 -402.918,-0.05 -24.633,0.02 -25.016,0.48 -25.028,25.95 -0.054,189.47 -0.062,378.94 0.012,568.41 0.016,24.8 0.981,25.79 25.582,25.81 133.512,0.09 267.016,0.09 400.524,-0.01 23.579,-0.02 25.139,-1.49 25.289,-23.8 0.25,-37.58 0.15,-75.15 -0.01,-112.72 -0.03,-6.22 -1.17,-12.44 -2.03,-21.13 -9.3,-0.65 -17.72,-1.73 -26.152,-1.75 -67.953,-0.15 -135.91,-0.07 -203.863,-0.11 -7.184,-0.01 -14.691,0.77 -21.434,-1.07 -4.492,-1.23 -10.867,-6.14 -11.289,-9.97 -2.441,-21.99 -4.64,-44.24 2.684,-68.73 70.727,0 140.734,0 212.926,0 3.609,-48.75 1.523,-94.68 1.367,-143.46 -9.594,-0.85 -17.953,-2.2 -26.309,-2.24 -52.761,-0.19 -105.531,-0.08 -158.297,-0.12 -6.39,0 -12.789,-0.18 -19.171,-0.41 -8.528,-0.31 -13.547,-4.98 -14.118,-13.29 -1.375,-19.8 -2.812,-39.66 2.883,-61.94"
         style="fill:#1e50bc;fill-opacity:1;fill-rule:evenodd;stroke:none"
         id="path46" />
      <path
         d="m 2207.2843,6170.1947 c -11.44,-31.63 -21.69,-60.15 -32.05,-88.63 -60.59,-166.71 -121.21,-333.4 -181.8201,-500.09 -1.64,-4.51 -3.81,-8.88 -4.94,-13.5 -3.05,-12.45 -11.3,-15.7 -23.21,-15.61 -50.38,0.35 -100.78,0.67 -151.16,-0.2 -14.98,-0.25 -21.04,6.28 -25.57,19.21 -15.85,45.25 -32.61,90.17 -48.98,135.23 -52.68,144.93 -105.35,289.87 -157.97,434.81 -2.97,8.17 -5.58,16.46 -9.02,26.65 6.35,1.81 11.31,4.43 16.29,4.46 55.19,0.29 110.38,-0.06 165.57,0.38 13.55,0.11 19.73,-5.55 23.55,-18.34 29.26,-97.98 59.48,-195.67 88.51,-293.71 5.86,-19.79 7.71,-40.74 11.83,-61.07 1.98,-9.75 0.16,-20.75 10.13,-31.38 3.47,5.14 8.06,8.88 8.53,13.09 10.85,96.2 49.94,184.77 74.73,277.18 8.69,32.39 19.68,64.16 28.83,96.43 3.66,12.92 10.6,17.95 24.04,17.82 55.9901,-0.49 111.9801,-0.17 167.9701,-0.3 3.77,0 7.54,-1.2 14.74,-2.43"
         style="fill:#1e50bc;fill-opacity:1;fill-rule:evenodd;stroke:none"
         id="path48" />
      <path
         d="m 2495.8443,4789.1847 c 0,-122.32 0,-244.64 0,-366.96 0,-4 0.05,-7.99 -0.01,-11.99 -0.34,-23.33 -0.8,-24.04 -24.49,-24.1 -63.95,-0.14 -127.91,-0.14 -191.87,-0.01 -25.6,0.06 -26.49,0.87 -26.51,27.49 -0.12,143.9 -0.06,287.8 -0.06,431.7 -0.01,103.93 -0.01,207.87 0.01,311.8 0,7.19 0.18,14.38 0.33,21.57 0.21,9.82 5.56,14.51 15.09,14.69 8.79,0.17 17.59,0.16 26.38,0.16 57.56,0.01 115.12,0.06 172.68,-0.02 28.26,-0.04 28.41,-0.15 28.42,-27.8 0.06,-125.51 0.03,-251.02 0.03,-376.53"
         style="fill:#1e50bc;fill-opacity:1;fill-rule:evenodd;stroke:none"
         id="path50" />
      <path
         d="m 3701.8343,5919.9747 c 2.3,5.07 6.22,10.01 6.64,15.23 2.51,30.98 14.34,58.6 28.26,85.83 22.18,43.39 43.98,86.98 65.04,130.91 7.04,14.7 15.75,21.55 33,21.19 51.93,-1.1 103.9,-0.35 155.84,-0.46 6.22,-0.01 12.42,-0.9 22.65,-1.7 -4.99,-10.47 -8.53,-18.88 -12.87,-26.86 -63.31,-116.52 -126.37,-233.19 -190.44,-349.29 -11.95,-21.66 -18.73,-42.91 -17.98,-67.97 1.43,-47.92 0.41,-95.91 0.41,-143.86 0,-8.64 0,-17.28 0,-25.03 -19.2,-6.68 -154.21,-7.93 -182.91,-1.99 -0.63,7.7 -1.91,16.16 -1.94,24.61 -0.2,51.15 -0.51,102.31 0.12,153.46 0.21,18.18 -4.02,34.19 -12.77,50.16 -66.05,120.48 -131.59,241.25 -197.22,361.97 -4.03,7.39 -7.48,15.1 -12.25,24.77 8.47,0.8 13.8,1.71 19.13,1.72 53.55,0.12 107.11,-0.43 160.65,0.39 15.71,0.23 24.7,-4.84 31.61,-19.27 23.09,-48.26 48.6,-95.4 70.88,-144.02 10.51,-22.95 15.81,-48.3 23.43,-72.57 1.74,-5.53 3.32,-11.09 4.98,-16.64 1.91,-0.2 3.82,-0.39 5.74,-0.58"
         style="fill:#1e50bc;fill-opacity:1;fill-rule:evenodd;stroke:none"
         id="path52" />
      <path
         d="m 1309.7892,3807.9747 c 3.98,8.9 6.39,13.56 8.191,18.46 6.574,17.86 11.281,36.63 19.723,53.54 20.695,41.48 43.515,81.88 64.539,123.2 7.039,13.84 15.816,19.94 31.781,19.49 36.762,-1.04 73.571,-0.11 110.351,-0.42 19.22,-0.17 21.43,-1.97 21.46,-20.12 0.19,-130.36 0.07,-260.72 -0.04,-391.08 -0.01,-3.91 -1.14,-7.81 -2.06,-13.7 -6.01,-0.88 -12.04,-2.47 -18.08,-2.53 -26.38,-0.29 -52.779,-0.26 -79.17,-0.09 -23.141,0.14 -24.613,1.15 -24.469,24.42 0.434,69.56 1.41,139.11 2.11,208.67 0.043,4.55 -0.524,9.1 -1.153,19.3 -5.98,-7.67 -10.113,-10.95 -11.558,-15.15 -18.403,-53.38 -50.965,-99.43 -76.719,-148.99 -4.711,-9.07 -11.715,-11.97 -21.508,-11.62 -14.379,0.51 -28.871,1.09 -43.16,-0.15 -15.203,-1.33 -23.313,5.43 -29.773,18.32 -24.329,48.49 -56.61,92.92 -73.821,145.08 -1.039,3.15 -4.48,5.49 -9.383,11.22 -1.562,-7.85 -3.16,-12.03 -3.101,-16.18 0.992,-71.9 2.437,-143.81 3.168,-215.71 0.176,-17.54 -1.84,-18.94 -19.66,-19.15 -28.785,-0.34 -57.586,0.22 -86.368,-0.21 -12.183,-0.18 -17.843,4.87 -17.664,16.93 0.09,5.58 -0.125,11.19 -0.125,16.78 -0.011,119.97 -0.011,239.93 -0.011,359.9 0,2.4 -0.02,4.8 0.015,7.19 0.379,26.06 1.032,26.84 27.153,26.93 35.992,0.13 71.988,-0.36 107.965,0.24 12.851,0.22 20.625,-4.39 26.523,-15.85 23.801,-46.18 48.789,-91.76 72.187,-138.13 6.723,-13.34 9.438,-28.67 14.321,-42.97 1.629,-4.76 4.289,-9.16 8.336,-17.62"
         style="fill:#1e50bc;fill-opacity:1;fill-rule:evenodd;stroke:none"
         id="path54" />
      <path
         d="m 3366.7543,3835.7047 c 23.62,0 44.34,-1.08 64.9,0.31 20.94,1.41 34.51,15.6 36.46,34.73 1.92,18.81 -9.07,36.31 -29.66,40.09 -20.08,3.69 -40.98,3.44 -61.53,3.6 -3.78,0.02 -10.68,-6.09 -10.91,-9.72 -1.52,-22.67 -2.46,-45.49 0.74,-69.01 z m 151.32,-61.54 c 9.75,-8.42 19.58,-15.3 27.33,-24.01 7.9,-8.89 12.02,-21.72 20.92,-28.99 14.39,-11.73 31.34,-20.34 52.63,-33.65 0,-22.78 0.38,-52.1 -0.45,-81.39 -0.11,-3.83 -6.36,-10.7 -9.82,-10.74 -26.28,-0.24 -53.01,-1.89 -78.75,2.23 -32.55,5.21 -56.2,25.54 -70.5,55.8 -6.81,14.45 -12.95,29.29 -20.61,43.27 -16.43,30 -35.2,37.09 -72.32,27.07 -0.49,-7.68 -1.46,-16.18 -1.52,-24.69 -0.21,-28.78 0.2,-57.58 -0.21,-86.37 -0.24,-16.09 -1.92,-17.71 -18.23,-17.91 -29.58,-0.37 -59.18,-0.36 -88.77,0 -17.18,0.2 -18.49,1.67 -18.76,19.82 -0.35,23.99 -0.1,47.99 -0.1,71.97 0,101.59 0,203.16 0,304.73 0,8.66 0,17.33 0,28.19 8.84,1.12 15.69,2.83 22.5,2.71 66.3,-1.16 132.62,-2.18 198.91,-4.24 27.45,-0.85 53.43,-9.19 77.69,-22.15 44.34,-23.69 61.76,-62.84 62,-111 0.22,-45.78 -23.51,-76.52 -63.07,-96.64 -4.97,-2.53 -9.98,-5.02 -14.8,-7.82 -1.19,-0.69 -1.72,-2.52 -4.07,-6.19"
         style="fill:#1e50bc;fill-opacity:1;fill-rule:evenodd;stroke:none"
         id="path56" />
      <path
         d="m 3163.3043,3705.6347 c 0,-36.25 0.08,-67.3 -0.05,-98.34 -0.03,-9.02 -5.4,-12.56 -13.95,-12.56 -93.51,0.04 -187.02,0.04 -280.51,0.02 -8.69,-0.01 -13.49,3.95 -13.71,12.84 -0.12,4.79 -0.16,9.59 -0.16,14.38 -0.01,124.67 -0.02,249.34 0.04,374.01 0,7.08 0.64,14.16 1.13,24.45 25.8,3.74 51.17,1.42 76.3,1.82 25.57,0.4 51.14,0.09 76.72,0.09 24.78,0 49.55,0 74.33,0 25.35,0 50.7,0 77.31,0 1.17,-9.24 2.52,-15.32 2.61,-21.4 0.29,-19.17 0.13,-38.36 0.12,-57.54 -0.03,-31.89 -0.04,-31.92 -30.79,-31.93 -40.77,-0.02 -81.52,-0.01 -122.28,-0.01 -8.57,0 -17.14,0 -27.59,0 0,-18.29 0,-33.66 0,-50.79 9.04,-0.57 16.79,-1.43 24.55,-1.47 31.97,-0.16 63.94,0.01 95.9,-0.09 26.84,-0.09 27.28,-0.53 27.51,-26.23 0.15,-16.77 0.18,-33.56 -0.02,-50.34 -0.29,-24.04 -0.69,-24.52 -23.94,-24.64 -32.77,-0.16 -65.53,0.02 -98.3,-0.1 -7.84,-0.02 -15.67,-0.65 -25.51,-1.1 0,-16.75 0,-32.1 0,-51.07 59.37,0 117.99,0 180.29,0"
         style="fill:#1e50bc;fill-opacity:1;fill-rule:evenodd;stroke:none"
         id="path58" />
      <path
         d="m 1868.0342,3770.5747 c -9.47,42.31 -18.4,82.46 -27.6,122.54 -0.4,1.74 -3.18,2.94 -4.61,4.17 -2.1,-0.84 -4.55,-1.15 -4.77,-2.02 -9.83,-37.79 -19.52,-75.6 -28.99,-113.48 -0.71,-2.86 0.31,-6.16 0.67,-11.21 21.53,0 42.48,0 65.3,0 z m 189.6201,-175.84 c -41.6401,0 -79.8701,0.13 -118.1101,-0.1 -9.43,-0.06 -14.88,3.84 -17.48,12.8 -4.45,15.34 -9.17,30.58 -13.94,45.81 -2.59,8.31 -7.28,13.5 -17.14,13.43 -40.69,-0.29 -81.38,-0.13 -124.92,-0.13 -5.05,-16.44 -9.84,-32.26 -14.77,-48.04 -7.37,-23.63 -7.41,-23.71 -31.18,-23.8 -28.76,-0.1 -57.53,-0.1 -86.3,0.04 -6.23,0.03 -12.45,0.82 -21.46,1.46 2.22,8.24 3.48,14.97 5.83,21.31 47.4,128.01 94.89,255.98 142.45,383.92 7.65,20.58 7.87,20.72 29.1,20.85 31.16,0.19 62.33,-0.34 93.49,0.22 13.22,0.24 19.92,-5.03 24.52,-17.51 48.57,-131.83 97.66,-263.46 146.5301,-395.18 1.33,-3.58 1.72,-7.5 3.38,-15.08"
         style="fill:#1e50bc;fill-opacity:1;fill-rule:evenodd;stroke:none"
         id="path60" />
      <path
         d="m 3876.8043,3882.3447 c -3.19,7.8 -4.92,13.95 -8.02,19.32 -13.5,23.35 -52.37,24.47 -67.59,2.17 -7.27,-10.65 -5.96,-22.04 5.67,-28.78 10.91,-6.34 23.15,-10.68 35.19,-14.77 20.41,-6.91 41.41,-12.15 61.62,-19.57 15.67,-5.74 31.25,-12.45 45.61,-20.89 81.25,-47.83 61.54,-148.16 11.39,-187.31 -28.12,-21.96 -60.53,-33.2 -94.8,-37.07 -64.33,-7.25 -126.04,2.65 -181.98,37.52 -12.7,7.91 -24.27,17.67 -39.08,28.57 21.13,27.53 40.7,53.04 60.88,79.34 7.68,-4.77 13.2,-7.8 18.28,-11.43 33.45,-23.92 70.83,-32.38 111.28,-28.07 6.98,0.74 15.23,2.04 20.16,6.27 6.79,5.83 13.72,14.07 15.6,22.4 2.4,10.65 -7.31,17.43 -16.46,20.84 -20.18,7.53 -41,13.32 -61.15,20.89 -25.32,9.51 -51.7,17.52 -75.05,30.7 -76.06,42.92 -63.28,136.97 -16.94,177.88 25.45,22.48 55.22,34.99 88.33,39.66 49.01,6.93 97.33,4.88 143.18,-16.15 33.86,-15.53 57.67,-39.89 64.07,-78.14 0.92,-5.44 1.48,-11.19 0.85,-16.64 -2.65,-23.4 -6.36,-26.61 -30.22,-26.72 -30.26,-0.12 -60.51,-0.02 -90.82,-0.02"
         style="fill:#1e50bc;fill-opacity:1;fill-rule:evenodd;stroke:none"
         id="path62" />
      <path
         d="m 2794.4943,4020.9247 c 0,-28.81 0,-54.28 0,-79.74 0,-8.63 0,-17.25 0,-27.35 -8.59,-1.25 -14.65,-2.79 -20.74,-2.89 -20.78,-0.32 -41.58,-0.09 -62.37,-0.16 -32.37,-0.12 -32.47,-0.15 -32.52,-31.61 -0.07,-59.98 -0.02,-119.96 -0.02,-179.94 0,-28 0.22,-56 -0.1,-83.97 -0.22,-19.16 -1.42,-20.32 -20.57,-20.5 -27.98,-0.29 -55.98,-0.28 -83.97,-0.01 -20.09,0.18 -21.15,1.19 -21.2,22.4 -0.18,73.58 -0.07,147.16 -0.08,220.74 0,17.6 0.31,35.2 -0.13,52.79 -0.44,17.28 -2.29,19.38 -19.43,19.87 -21.58,0.61 -43.18,0.21 -64.78,0.24 -8.68,0.01 -17.36,0 -27.18,0 -1.54,7.21 -3.54,12.4 -3.62,17.63 -0.34,24.79 -0.44,49.59 -0.07,74.37 0.27,17.33 2.02,19.02 19.54,19.43 18.38,0.44 36.78,0.12 55.18,0.12 83.98,0 167.95,0.03 251.93,-0.06 8.6,-0.01 17.2,-0.75 30.13,-1.36"
         style="fill:#1e50bc;fill-opacity:1;fill-rule:evenodd;stroke:none"
         id="path64" />
      <path
         d="m 2039.5543,3910.7947 c 0,38.7 0,72.77 0,108.98 7.98,0.93 14.87,2.45 21.75,2.46 103.15,0.14 206.31,0.17 309.47,0.04 22.91,-0.03 24.07,-1.41 24.25,-24.71 0.18,-23.18 -0.25,-46.38 0.12,-69.57 0.19,-12.19 -4.97,-17.4 -17.16,-17.24 -23.99,0.34 -47.99,0.2 -71.97,-0.01 -26.41,-0.22 -28.31,-1.8 -28.39,-29.02 -0.26,-82.36 -0.21,-164.73 -0.09,-247.09 0.07,-46.84 -0.08,-39.48 -40.42,-39.91 -22.38,-0.24 -44.78,0.22 -67.16,-0.1 -10.93,-0.16 -16.56,4.15 -16.33,15.4 0.13,6.4 -0.11,12.79 -0.11,19.19 -0.01,81.56 0,163.13 -0.02,244.69 0,6.39 -0.2,12.79 -0.2,19.19 0,11.83 -5.81,17.58 -17.7,17.55 -22.39,-0.05 -44.78,0.1 -67.16,0.15 -8.6,0.02 -17.2,0 -28.88,0"
         style="fill:#1e50bc;fill-opacity:1;fill-rule:evenodd;stroke:none"
         id="path66" />
      <path
         d="m 1678.9742,2543.7847 c 7.02,41.59 13.45,79.73 20.19,119.74 32.69,1.74 63.16,1.17 96.73,0.25 -7.07,-41.69 -13.52,-79.76 -20.36,-120.12 -32.65,-1.28 -63.12,-1.13 -96.56,0.13"
         style="fill:#1e50bc;fill-opacity:1;fill-rule:evenodd;stroke:none"
         id="path68" />
      <path
         d="m 2231.9543,2602.0747 c 26.58,0.91 50.17,-6.01 70.23,-24.54 32.68,-30.17 36.92,-118.36 -25.28,-147.92 -27.95,-13.29 -62.69,-7.35 -88.77,16.06 -22.81,20.47 -35.54,46.98 -42.98,76.02 -10.51,40.98 -6.74,48.19 31.65,67.2 20.9,10.35 32.68,13.16 55.15,13.18"
         style="fill:#1e50bc;fill-opacity:1;fill-rule:evenodd;stroke:none"
         id="path70" />
    </g>
  </g>
</svg>
